<?xml version="1.0" standalone="no"?>
<!DOCTYPE svg PUBLIC "-//W3C//DTD SVG 20010904//EN"
 "http://www.w3.org/TR/2001/REC-SVG-20010904/DTD/svg10.dtd">
<svg version="1.0" xmlns="http://www.w3.org/2000/svg"
 width="500.000000pt" height="500.000000pt" viewBox="0 0 500.000000 500.000000"
 preserveAspectRatio="xMidYMid meet">
<metadata>
Created by potrace 1.14, written by Peter Selinger 2001-2017
</metadata>
<g transform="translate(0.000000,500.000000) scale(0.100000,-0.100000)"
fill="#000000" stroke="none">
<path d="M0 2500 l0 -2500 2500 0 2500 0 0 2500 0 2500 -2500 0 -2500 0 0
-2500z m3560 1973 c33 -30 11 37 298 -938 56 -187 200 -676 321 -1087 122
-411 221 -761 221 -777 0 -35 -30 -74 -67 -90 -33 -13 -644 -191 -656 -191 -5
0 -24 7 -42 16 -43 20 -42 19 -164 430 -55 186 -206 699 -336 1139 -405 1371
-368 1237 -351 1279 9 21 27 41 42 48 51 24 639 196 671 197 23 1 42 -7 63
-26z m-2137 -55 c12 -6 30 -20 40 -31 16 -19 17 -101 17 -1472 0 -1599 5
-1476 -64 -1509 -29 -14 -79 -16 -354 -16 -188 0 -332 4 -347 10 -14 5 -37 22
-50 36 l-25 27 0 1452 0 1453 35 31 36 31 345 0 c242 0 352 -3 367 -12z m2959
-3195 c15 -14 18 -32 18 -134 0 -94 -3 -121 -16 -133 -14 -14 -197 -16 -1868
-16 -1427 0 -1855 3 -1864 12 -8 8 -12 52 -12 132 0 97 3 123 17 138 15 17 86
18 1861 18 1703 0 1847 -1 1864 -17z"/>
</g>
</svg>
